<?xml version="1.0" standalone="no"?>
<!DOCTYPE svg PUBLIC "-//W3C//DTD SVG 20010904//EN"
 "http://www.w3.org/TR/2001/REC-SVG-20010904/DTD/svg10.dtd">
<svg version="1.0" xmlns="http://www.w3.org/2000/svg"
 width="500.000000pt" height="500.000000pt" viewBox="0 0 500.000000 500.000000"
 preserveAspectRatio="xMidYMid meet">
<metadata>
Created by potrace 1.14, written by Peter Selinger 2001-2017
</metadata>
<g transform="translate(0.000000,500.000000) scale(0.100000,-0.100000)"
fill="#000000" stroke="none">
<path d="M1115 4990 c-56 -7 -86 -12 -160 -26 -16 -3 -70 -20 -120 -37 -349
-120 -629 -393 -753 -734 -31 -84 -57 -194 -70 -293 -4 -30 -7 -669 -7 -1420
0 -1269 2 -1371 18 -1445 10 -44 19 -87 21 -95 2 -12 18 -66 31 -110 1 -3 7
-18 13 -33 7 -16 12 -31 12 -35 0 -14 77 -153 123 -222 66 -97 222 -254 317
-317 175 -117 345 -180 565 -210 77 -10 2710 -11 2790 0 33 4 78 12 99 17 22
5 42 8 45 8 3 0 8 1 11 2 3 1 13 3 23 5 84 16 355 139 365 166 2 5 8 9 14 9
40 0 277 235 331 329 12 20 24 38 27 41 25 19 144 293 133 304 -3 2 -1 11 3
18 5 7 9 18 10 23 1 6 5 24 8 40 36 175 37 191 33 1573 -2 741 -7 1363 -11
1382 -4 19 -14 66 -22 103 -8 38 -19 77 -24 88 -6 10 -8 19 -6 19 17 0 -95
242 -130 281 -8 8 -14 19 -14 23 0 7 -37 59 -75 105 -30 36 -138 141 -187 182
-128 107 -324 198 -518 242 -94 21 -107 21 -1465 23 -753 1 -1397 -2 -1430 -6z"/>
</g>
</svg>
