<?xml version="1.0" standalone="no"?>
<!DOCTYPE svg PUBLIC "-//W3C//DTD SVG 20010904//EN"
 "http://www.w3.org/TR/2001/REC-SVG-20010904/DTD/svg10.dtd">
<svg version="1.0" xmlns="http://www.w3.org/2000/svg"
 width="500.000000pt" height="500.000000pt" viewBox="0 0 500.000000 500.000000"
 preserveAspectRatio="xMidYMid meet">
<metadata>
Created by potrace 1.14, written by Peter Selinger 2001-2017
</metadata>
<g transform="translate(0.000000,500.000000) scale(0.100000,-0.100000)"
fill="#000000" stroke="none">
<path d="M2230 4984 c-185 -22 -217 -28 -335 -58 -5 -2 -23 -6 -40 -10 -65
-17 -253 -80 -305 -103 -30 -14 -73 -32 -95 -41 -22 -8 -44 -19 -50 -23 -5 -4
-49 -27 -96 -52 -74 -39 -125 -71 -253 -157 -87 -58 -234 -185 -338 -292 -96
-98 -234 -262 -256 -305 -7 -12 -18 -27 -25 -35 -62 -65 -235 -404 -296 -582
-44 -127 -97 -332 -106 -406 -3 -25 -10 -81 -17 -125 -18 -129 -14 -574 6
-637 3 -7 7 -33 10 -58 6 -54 22 -133 35 -178 5 -18 10 -36 11 -40 23 -157
188 -537 316 -730 70 -106 74 -112 154 -212 205 -260 498 -501 793 -654 156
-82 384 -174 467 -190 14 -3 68 -16 121 -30 53 -13 116 -27 140 -30 24 -3 61
-8 81 -11 108 -18 202 -22 388 -20 113 2 214 5 225 8 11 3 45 8 75 12 58 7 90
12 143 20 42 8 255 63 287 75 14 5 39 15 55 21 17 7 37 13 45 15 30 6 310 133
320 145 3 4 25 17 50 29 140 71 360 240 525 405 103 102 247 271 273 322 7 12
18 27 25 35 42 44 175 287 252 462 38 85 114 333 131 426 3 14 7 32 9 40 3 8
7 40 11 70 3 30 7 57 9 60 24 39 25 525 2 690 -41 287 -108 502 -237 765 -159
324 -340 555 -640 816 -45 39 -204 154 -280 203 -103 66 -354 187 -477 231
-121 42 -348 101 -424 110 -57 6 -94 11 -144 21 -65 12 -443 11 -545 -2z"/>
</g>
</svg>
